<?xml version="1.0" encoding="iso-8859-1"?>
<!-- Generator: Adobe Illustrator 19.0.0, SVG Export Plug-In . SVG Version: 6.00 Build 0)  -->
<svg version="1.1" id="Capa_1" xmlns="http://www.w3.org/2000/svg" xmlns:xlink="http://www.w3.org/1999/xlink" x="0px" y="0px"
	 viewBox="0 0 512 512" style="enable-background:new 0 0 512 512;" xml:space="preserve">
<path style="fill:#E8596E;" d="M22.703,116L0,229.515V346h512V116H22.703z"/>
<rect x="256" y="116" style="fill:#DB2E44;" width="256" height="230"/>
<path style="fill:#0E61C4;" d="M106,396c-30.327,0-55-24.673-55-55s24.673-55,55-55s55,24.673,55,55S136.327,396,106,396z"/>
<path style="fill:#0C4EAD;" d="M406,396c-30.327,0-55-24.673-55-55s24.673-55,55-55s55,24.673,55,55S436.327,396,406,396z"/>
<path style="fill:#E4F7FF;" d="M106,316c-13.785,0-25,11.215-25,25s11.215,25,25,25s25-11.215,25-25S119.785,316,106,316z"/>
<g>
	<path style="fill:#CBEDFD;" d="M406,316c-13.785,0-25,11.215-25,25s11.215,25,25,25s25-11.215,25-25S419.785,316,406,316z"/>
	<rect x="271" y="146" style="fill:#CBEDFD;" width="100" height="70"/>
</g>
<g>
	<rect x="140" y="146" style="fill:#E4F7FF;" width="101" height="70"/>
	<polygon style="fill:#E4F7FF;" points="47.297,146 110,146 110,216 33.297,216 	"/>
</g>
<rect x="401" y="146" style="fill:#CBEDFD;" width="81" height="70"/>
<g>
</g>
<g>
</g>
<g>
</g>
<g>
</g>
<g>
</g>
<g>
</g>
<g>
</g>
<g>
</g>
<g>
</g>
<g>
</g>
<g>
</g>
<g>
</g>
<g>
</g>
<g>
</g>
<g>
</g>
</svg>
